<svg xmlns="http://www.w3.org/2000/svg" width="39.993" height="39.931" viewBox="0 0 39.993 39.931">
  <g id="color-fill-outline" transform="translate(-0.006 -0.069)">
    <path id="Path" d="M5.62,14.252A5.749,5.749,0,0,1,0,8.473,5.808,5.808,0,0,1,.169,7.111,11.434,11.434,0,0,1,2.445,2.863c.346-.444.7-.866,1.128-1.346.031-.035.58-.649.75-.845L4.364.624A1.783,1.783,0,0,1,5.683,0h.036A1.78,1.78,0,0,1,7.05.6l.029.032.127.145.589.66.148.166c.385.439.719.837,1.043,1.252a11.464,11.464,0,0,1,2.276,4.261,5.838,5.838,0,0,1,.167,1.36,5.754,5.754,0,0,1-5.714,5.781Z" transform="translate(28.571 25.746)" fill="currentColor"/>
    <path id="Path-2" data-name="Path" d="M12.964,36.477l-.046-.043L1.2,25.206a3.912,3.912,0,0,1-.08-5.561l.036-.037,7.558-7.53-3.706-3.7a4.625,4.625,0,0,1-1.362-3.1l0-.055,0-.067V5.1a4.624,4.624,0,0,1,1.324-3.24l.04-.04.458-.457A4.651,4.651,0,0,1,12,1.318L15.768,5.05,17.2,6.467,32.715,21.825a2,2,0,0,1,.457,2.1l-.014.036-.013.035a2.011,2.011,0,0,1-1.827,1.248h-.063a5.982,5.982,0,0,0-1.153.094,1.865,1.865,0,0,0-.35.1l-.048.023-.014.008-.263.259c-.728.712-2.589,2.515-5.454,5.283l-5.6,5.411a3.939,3.939,0,0,1-5.41.056Z" transform="translate(0.006 0.069)" fill="currentColor"/>
  </g>
</svg>
