<svg xmlns="http://www.w3.org/2000/svg" width="39.998" height="39.967" viewBox="0 0 39.998 39.967">
  <g id="rocket-outline" transform="translate(-0.001 -0.017)">
    <path id="Shape" d="M14.017,39.36a2.233,2.233,0,0,1-.694-1.81l.005-.051.629-5.734-.051-.005-.178-.019a3.04,3.04,0,0,1-1.778-.846l-2.83-2.83a3.047,3.047,0,0,1-.886-1.816l-.019-.179-.006-.06L2.46,26.64A2.234,2.234,0,0,1,.029,24.058a17.69,17.69,0,0,1,1.679-5.2A11,11,0,0,1,7.053,13.6a11.645,11.645,0,0,1,5.113-.842l.115,0,.094-.125a27.832,27.832,0,0,1,2.311-2.668l.119-.119.11-.111C21.044,3.615,32.58-1.038,38.249.2l.158.037a1.818,1.818,0,0,1,1.35,1.335l.008.034.04.18c1.179,5.747-3.2,16.7-9.189,22.915l-.182.186-.186.188a27.708,27.708,0,0,1-2.776,2.442l-.133.1-.129.1v.032a11.855,11.855,0,0,1-.782,5.026l-.032.076-.031.074a10.948,10.948,0,0,1-5.252,5.342A17.519,17.519,0,0,1,15.9,39.938a2.23,2.23,0,0,1-1.886-.579Z" transform="translate(0.001 0.017)" fill="currentColor"/>
    <path id="Path" d="M5.33.011a1.429,1.429,0,0,1,.376,2.832l-.028,0a2.592,2.592,0,0,0-1.515.737,6.419,6.419,0,0,0-.932,2.759C3.114,7,3.025,7.71,2.96,8.426l0,.047.046,0c.664-.06,1.321-.142,1.941-.247L5.085,8.2l.112-.02a6.169,6.169,0,0,0,2.648-.914A2.565,2.565,0,0,0,8.576,5.8l.006-.046a1.429,1.429,0,0,1,2.837.34A5.42,5.42,0,0,1,9.863,9.286a7.984,7.984,0,0,1-4.28,1.725c-.906.16-1.867.272-2.826.345l-.165.012c-.245.017-.476.031-.69.042l-.162.008-.275.01A1.429,1.429,0,0,1,0,9.992l0-.074c0-.074.006-.182.013-.321l.007-.143c.013-.242.029-.5.05-.783.073-.959.185-1.92.345-2.827a8,8,0,0,1,1.724-4.28A5.452,5.452,0,0,1,5.33.011Z" transform="translate(1.429 27.143)" fill="currentColor"/>
  </g>
</svg>
